# WaveFront *.obj file (generated by CINEMA 4D)

mtllib ./webGL_model_frame.mtl

v 34643.89453125 110150 150
v 34343.89453125 109850 150
v 34343.89453125 109850 -150
v 34643.89453125 110150 -150
v -5656.10595703125 110150 150
v -5356.10595703125 109850 150
v -5356.10595703125 109850 -150
v -5656.10595703125 110150 -150
v -5656.10595703125 69850 150
v -5356.10595703125 70150 150
v -5356.10595703125 70150 -150
v -5656.10595703125 69850 -150
v 34643.89453125 69850 150
v 34343.89453125 70150 150
v 34343.89453125 70150 -150
v 34643.89453125 69850 -150
# 16 vertices

vn 0 0 1
vn 0 -1 0
vn 0 0 -1
vn 0 1 0
vn 1 0 0
vn -1 0 0
# 6 normals

vt 0 1 0
vt 0.25 1 0
vt 0.25 0.75 0
vt 0 0.75 0
vt 0.5 1 0
vt 0.5 0.75 0
vt 0.75 1 0
vt 0.75 0.75 0
vt 1 1 0
vt 1 0.75 0
vt 0.25 0.5 0
vt 0 0.5 0
vt 0.5 0.5 0
vt 0.75 0.5 0
vt 1 0.5 0
vt 0.25 0.25 0
vt 0 0.25 0
vt 0.5 0.25 0
vt 0.75 0.25 0
vt 1 0.25 0
vt 0.25 0 0
vt 0 0 0
vt 0.5 0 0
vt 0.75 0 0
vt 1 0 0
# 25 texture coordinates

o Large_Square_Frame.1
usemtl default
f 5/4/1 6/3/1 2/2/1 1/1/1
f 6/3/2 7/6/2 3/5/2 2/2/2
f 7/6/3 8/8/3 4/7/3 3/5/3
f 8/8/4 5/10/4 1/9/4 4/7/4
f 9/12/1 10/11/1 6/3/1 5/4/1
f 10/11/5 11/13/5 7/6/5 6/3/5
f 11/13/3 12/14/3 8/8/3 7/6/3
f 12/14/6 9/15/6 5/10/6 8/8/6
f 13/17/1 14/16/1 10/11/1 9/12/1
f 14/16/4 15/18/4 11/13/4 10/11/4
f 15/18/3 16/19/3 12/14/3 11/13/3
f 16/19/2 13/20/2 9/15/2 12/14/2
f 1/22/1 2/21/1 14/16/1 13/17/1
f 2/21/6 3/23/6 15/18/6 14/16/6
f 3/23/3 4/24/3 16/19/3 15/18/3
f 4/24/5 1/25/5 13/20/5 16/19/5

