<?xml version="1.0" encoding="utf-8"?>
<!-- Generator: Adobe Illustrator 23.0.6, SVG Export Plug-In . SVG Version: 6.00 Build 0)  -->
<svg version="1.1" id="Layer_1" xmlns="http://www.w3.org/2000/svg" xmlns:xlink="http://www.w3.org/1999/xlink" x="0px" y="0px"
	 viewBox="0 0 1280.3 1115" style="enable-background:new 0 0 1280.3 1115;" xml:space="preserve">
<style type="text/css">
	.st0{fill-opacity:0;}
	.st1{fill:none;stroke:#000000;stroke-opacity:5.000000e-02;}
	.st2{fill:#C5C5C5;enable-background:new    ;}
	.st3{font-family:'ArialMT';}
	.st4{font-size:11.5382px;}
	.st5{fill:#BEBEBE;enable-background:new    ;}
	.st6{font-size:12.9141px;}
	.st7{fill:#B7B7B7;enable-background:new    ;}
	.st8{font-size:14.1588px;}
	.st9{fill:#B0B0B0;enable-background:new    ;}
	.st10{font-size:15.2951px;}
	.st11{fill:#A9A9A9;enable-background:new    ;}
	.st12{font-size:16.3404px;}
	.st13{fill:#949494;enable-background:new    ;}
	.st14{font-size:19.052px;}
	.st15{fill:#8D8D8D;enable-background:new    ;}
	.st16{font-size:19.8437px;}
	.st17{fill:#868686;enable-background:new    ;}
	.st18{font-size:20.5902px;}
	.st19{fill:#7F7F7F;enable-background:new    ;}
	.st20{font-size:21.2963px;}
	.st21{fill:#4D4D4D;enable-background:new    ;}
	.st22{font-size:25.3924px;}
	.st23{fill:#383838;enable-background:new    ;}
	.st24{font-size:26.8185px;}
	.st25{enable-background:new    ;}
	.st26{font-size:30px;}
	.st27{fill:#CCCCCC;enable-background:new    ;}
	.st28{font-size:10px;}
	.st29{fill:#EAE730;enable-background:new    ;}
	.st30{fill:#DD4126;enable-background:new    ;}
	.st31{font-size:23.2108px;}
	.st32{font-size:23.7913px;}
	.st33{fill:#49C1E2;enable-background:new    ;}
	.st34{font-size:17.3082px;}
	.st35{font-size:18.2092px;}
	.st36{font-size:21.9661px;}
	.st37{fill:#49C1E2;}
</style>
<g id="arc-tip" transform="translate(-330,-330) scale(2)">
	<path id="arc" class="st0" d="M482.2,182.9c53.4,0,105.4,17.1,148.3,48.8L482.2,432.9V182.9z"/>
</g>
<g id="concentric-circles" transform="translate(-330,-330) scale(2)">
	<circle id="circle-0" class="st1" cx="482.2" cy="432.9" r="250"/>
	<circle id="circle-1" class="st1" cx="482.2" cy="432.9" r="187.5"/>
	<circle id="circle-2" class="st1" cx="482.2" cy="432.9" r="125"/>
	<circle id="circle-3" class="st1" cx="482.2" cy="432.9" r="62.5"/>
</g>
<line id="pos-y-axis" class="st1" x1="634.3" y1="535.7" x2="634.3" y2="35.7"/>
<line id="pos-x-axis" class="st1" x1="634.3" y1="535.7" x2="1134.3" y2="535.7"/>
<line id="neg-y-axis" class="st1" x1="634.3" y1="535.7" x2="634.3" y2="1035.7"/>
<line id="neg-x-axis" class="st1" x1="634.3" y1="535.7" x2="134.3" y2="535.7"/>
<line id="quad-1-axis" class="st1" x1="634.3" y1="535.7" x2="987.9" y2="182.2"/>
<line id="quad-2-axis" class="st1" x1="634.3" y1="535.7" x2="987.9" y2="889.3"/>
<line id="quad-3-axis" class="st1" x1="634.3" y1="535.7" x2="280.8" y2="889.3"/>
<line id="quad-4-axis" class="st1" x1="634.3" y1="535.7" x2="280.8" y2="182.2"/>
<circle id="origin" cx="634.3" cy="535.7" r="5"/>
<text pointer-events="auto" transform="matrix(1 0 0 1 778.4196 703.9286)" class="st2 st3 st4">sa</text>
<text pointer-events="auto" transform="matrix(1 0 0 1 902.8145 584.0358)" class="st2 st3 st4">morgan</text>
<text pointer-events="auto" transform="matrix(1 0 0 1 612.4913 535.7235)" class="st2 st3 st4">ayodhya</text>
<text pointer-events="auto" transform="matrix(1 0 0 1 564.4139 746.6686)" class="st2 st3 st4">algorithm</text>
<text pointer-events="auto" transform="matrix(1 0 0 1 1028.5792 490.6996)" class="st5 st3 st6">sydney</text>
<text pointer-events="auto" transform="matrix(1 0 0 1 803.0985 728.8809)" class="st5 st3 st6">kong</text>
<text pointer-events="auto" transform="matrix(1 0 0 1 746.9609 759.7607)" class="st5 st3 st6">hong</text>
<text pointer-events="auto" transform="matrix(1 0 0 1 668.3239 726.2055)" class="st5 st3 st6">ceo</text>
<text pointer-events="auto" transform="matrix(1 0 0 1 716.5931 600.2571)" class="st7 st3 st8">goldman</text>
<text pointer-events="auto" transform="matrix(1 0 0 1 1082.4377 527.8832)" class="st7 st3 st8">australia</text>
<text pointer-events="auto" transform="matrix(1 0 0 1 953.717 522.8173)" class="st7 st3 st8">american</text>
<text pointer-events="auto" transform="matrix(1 0 0 1 996.367 566.016)" class="st9 st3 st10">kansas</text>
<text pointer-events="auto" transform="matrix(1 0 0 1 907.8796 423.4689)" class="st11 st3 st12">manchester</text>
<text pointer-events="auto" transform="matrix(1 0 0 1 1038.0793 470.0683)" class="st11 st3 st12">london</text>
<text pointer-events="auto" transform="matrix(1 0 0 1 1048.5906 623.9294)" class="st11 st3 st12">india</text>
<text pointer-events="auto" transform="matrix(1 0 0 1 607.8272 525.7235)" class="st13 st3 st14">centre</text>
<text pointer-events="auto" transform="matrix(1 0 0 1 1058.5093 399.9148)" class="st15 st3 st16">england</text>
<text pointer-events="auto" transform="matrix(1 0 0 1 944.9366 568.2527)" class="st17 st3 st18">delhi</text>
<text pointer-events="auto" transform="matrix(1 0 0 1 839.0356 506.4967)" class="st19 st3 st20">wales</text>
<text pointer-events="auto" transform="matrix(1 0 0 1 1020.9877 287.3839)" class="st21 st3 st22">liverpool</text>
<text pointer-events="auto" transform="matrix(1 0 0 1 619.8648 562.0232)" class="st23 st3 st24">city&apos;s</text>
<text pointer-events="auto" transform="matrix(1 0 0 1 929.1818 538.2974)" class="st25 st3 st26">zealand</text>
<text pointer-events="auto" transform="matrix(1 0 0 1 507.9737 689.9534)" class="st7 st3 st8">global</text>
<text pointer-events="auto" transform="matrix(1 0 0 1 407.7293 730.2191)" class="st2 st3 st4">probe</text>
<text pointer-events="auto" transform="matrix(1 0 0 1 531.0823 392.7132)" class="st27 st3 st28">tweets</text>
<text pointer-events="auto" transform="matrix(1 0 0 1 513.5511 165.2037)" class="st11 st3 st12">jersey</text>
<text pointer-events="auto" transform="matrix(1 0 0 1 501.7679 445.1885)" class="st29 st3 st12">united</text>
<text pointer-events="auto" transform="matrix(1 0 0 1 445.2112 296.2339)" class="st30 st3 st31">league</text>
<text pointer-events="auto" transform="matrix(1 0 0 1 508.533 460.5203)" class="st29 st3 st8">sports</text>
<text pointer-events="auto" transform="matrix(1 0 0 1 458.7541 459.6645)" class="st29 st3 st6">headlines</text>
<text pointer-events="auto" transform="matrix(1 0 0 1 396.8457 432.5385)" class="st29 st3 st32">election</text>
<text pointer-events="auto" transform="matrix(1 0 0 1 400.0415 441.746)" class="st29 st3 st8">protesters</text>
<text pointer-events="auto" transform="matrix(1 0 0 1 354.3156 327.485)" class="st27 st3 st28">victory</text>
<text pointer-events="auto" transform="matrix(1 0 0 1 497.656 540.0301)" class="st33 st3 st16">trump</text>
<text pointer-events="auto" transform="matrix(1 0 0 1 426.3235 520.7158)" class="st33 st3 st10">aircraft</text>
<text pointer-events="auto" transform="matrix(1 0 0 1 458.984 522.2216)" class="st33 st3 st34">district</text>
<text pointer-events="auto" transform="matrix(1 0 0 1 448.8388 530.7166)" class="st33 st3 st35">ratings</text>
<text pointer-events="auto" transform="matrix(1 0 0 1 393.59 541.789)" class="st33 st3 st16">leader</text>
<text pointer-events="auto" transform="matrix(1 0 0 1 407.7205 503.0565)" class="st33 st3 st6">celebrating</text>
<text pointer-events="auto" transform="matrix(1 0 0 1 466.3018 505.4505)" class="st33 st3 st10">media</text>
<text pointer-events="auto" transform="matrix(1 0 0 1 468.5523 492.3235)" class="st33 st3 st4">hotel</text>
<text pointer-events="auto" transform="matrix(1 0 0 1 412.364 502.2863)" class="st33 st3 st18">mayor</text>
<text pointer-events="auto" transform="matrix(1 0 0 1 445.5186 501.4438)" class="st33 st3 st4">airline</text>
<text pointer-events="auto" transform="matrix(1 0 0 1 438.3792 603.8846)" class="st7 st3 st8">premier</text>
<text pointer-events="auto" transform="matrix(1 0 0 1 443.4275 663.9594)" class="st7 st3 st8">corporation</text>
<text pointer-events="auto" transform="matrix(1 0 0 1 505.2014 597.4821)" class="st5 st3 st6">western</text>
<text pointer-events="auto" transform="matrix(1 0 0 1 455.2681 639.9032)" class="st2 st3 st4">ensure</text>
<text pointer-events="auto" transform="matrix(1 0 0 1 438.635 626.8384)" class="st2 st3 st4">alleged</text>
<text pointer-events="auto" transform="matrix(1 0 0 1 395.0358 569.5296)" class="st33 st3 st6">minister</text>
<text pointer-events="auto" transform="matrix(1 0 0 1 435.3184 546.5488)" class="st33 st3 st36">university</text>
<circle class="st37" cx="1486.4" cy="234.8" r="17"/>
<circle class="st37" cx="1455.9" cy="284.6" r="11"/>
<circle class="st37" cx="1426.9" cy="228.8" r="12"/>
<circle class="st37" cx="1466.9" cy="253.4" r="6"/>
<circle class="st37" cx="1474.4" cy="199.6" r="5"/>
<circle class="st37" cx="1464.4" cy="222.2" r="3.5"/>
<circle class="st37" cx="1486.4" cy="260.9" r="2.5"/>
<circle class="st37" cx="1449.9" cy="233.2" r="6"/>
<circle class="st37" cx="1441.7" cy="263.4" r="2.5"/>
<circle class="st37" cx="1479.4" cy="271.1" r="2.5"/>
</svg>
